<svg width="310" height="407" xmlns="http://www.w3.org/2000/svg" xmlns:xlink="http://www.w3.org/1999/xlink" xml:space="preserve" overflow="hidden"><g transform="translate(-1191 -613)"><path d="M1333.66 920.598C1331.71 893.64 1351.98 870.205 1378.93 868.253 1405.89 866.301 1429.33 886.571 1431.28 913.529 1433.23 940.486 1412.96 963.922 1386 965.874 1359.05 967.826 1335.61 947.555 1333.66 920.598Z" stroke="#FFFFFF" stroke-width="27.5" stroke-miterlimit="8" fill="none" fill-rule="evenodd"/><path d="M1420.42 949.463C1421.05 948.731 1422.15 948.651 1422.89 949.284L1492.78 1009.74C1493.51 1010.37 1493.59 1011.48 1492.96 1012.21L1492.96 1012.21C1492.33 1012.94 1491.22 1013.02 1490.49 1012.39L1420.59 951.932C1419.86 951.3 1419.78 950.194 1420.42 949.463Z" stroke="#FFFFFF" stroke-width="13.75" stroke-miterlimit="8" fill="none" fill-rule="evenodd"/><path d="M1226 659C1226 654.582 1229.58 651 1234 651L1395 651C1399.42 651 1403 654.582 1403 659L1403 659C1403 663.418 1399.42 667 1395 667L1234 667C1229.58 667 1226 663.418 1226 659Z" fill="#FFFFFF" fill-rule="evenodd"/><path d="M1325 695C1325 690.582 1328.58 687 1333 687L1395 687C1399.42 687 1403 690.582 1403 695L1403 695C1403 699.418 1399.42 703 1395 703L1333 703C1328.58 703 1325 699.418 1325 695Z" fill="#FFFFFF" fill-rule="evenodd"/><path d="M1237.17 620 1393.83 620C1415.46 620 1433 637.531 1433 659.156L1433 837.177 1420.18 828.535C1408.66 823.665 1396 820.972 1382.71 820.972 1329.54 820.972 1286.44 864.06 1286.44 917.212 1286.44 923.856 1287.11 930.342 1288.39 936.607L1293.48 953 1237.17 953C1215.54 953 1198 935.469 1198 913.844L1198 659.156C1198 637.531 1215.54 620 1237.17 620Z" stroke="#FFFFFF" stroke-width="13.75" stroke-miterlimit="8" fill="none" fill-rule="evenodd"/></g></svg>