<svg width="296" height="339" xmlns="http://www.w3.org/2000/svg" xmlns:xlink="http://www.w3.org/1999/xlink" xml:space="preserve" overflow="hidden"><g transform="translate(-1545 -613)"><path d="M1592.94 620 1746.06 620C1768.67 620 1787 638.323 1787 660.925L1787 770.2 1782.15 766.2C1765.8 755.156 1746.09 748.707 1724.87 748.707 1668.28 748.707 1622.41 794.565 1622.41 851.133 1622.41 865.275 1625.28 878.748 1630.46 891.002L1632.63 895 1592.94 895C1570.33 895 1552 876.677 1552 854.075L1552 660.925C1552 638.323 1570.33 620 1592.94 620Z" stroke="#FFFFFF" stroke-width="13.75" stroke-miterlimit="8" fill="none" fill-rule="evenodd"/><path d="M1581 659C1581 654.582 1584.58 651 1589 651L1750 651C1754.42 651 1758 654.582 1758 659L1758 659C1758 663.418 1754.42 667 1750 667L1589 667C1584.58 667 1581 663.418 1581 659Z" fill="#FFFFFF" fill-rule="evenodd"/><path d="M1659 695C1659 690.582 1662.58 687 1667 687L1750 687C1754.42 687 1758 690.582 1758 695L1758 695C1758 699.418 1754.42 703 1750 703L1667 703C1662.58 703 1659 699.418 1659 695Z" fill="#FFFFFF" fill-rule="evenodd"/><path d="M1673.87 852.789C1671.91 825.832 1692.18 802.396 1719.14 800.444 1746.1 798.492 1769.53 818.763 1771.49 845.72 1773.44 872.677 1753.17 896.113 1726.21 898.065 1699.25 900.017 1675.82 879.746 1673.87 852.789Z" stroke="#FFFFFF" stroke-width="27.5" stroke-miterlimit="8" fill="none" fill-rule="evenodd"/><path d="M1760.62 881.654C1761.26 880.922 1762.36 880.842 1763.09 881.475L1832.99 941.931C1833.72 942.564 1833.8 943.67 1833.17 944.401L1833.17 944.401C1832.53 945.132 1831.43 945.213 1830.7 944.58L1760.8 884.124C1760.07 883.491 1759.99 882.385 1760.62 881.654Z" stroke="#FFFFFF" stroke-width="13.75" stroke-miterlimit="8" fill="none" fill-rule="evenodd"/></g></svg>