<svg width="1268" height="977" xmlns="http://www.w3.org/2000/svg" xmlns:xlink="http://www.w3.org/1999/xlink" xml:space="preserve" overflow="hidden"><g transform="translate(-1431 -510)"><path d="M1527.23 1022.27 2047.32 1022.27 2041.19 1041.45C2037.56 1058.72 2035.65 1076.59 2035.65 1094.91 2035.65 1131.53 2043.28 1166.42 2057.09 1198.15L2080.17 1239.5 1527.23 1239.5C1479.88 1239.5 1441.5 1201.13 1441.5 1153.8L1441.5 1107.97C1441.5 1060.64 1479.88 1022.27 1527.23 1022.27ZM1527.23 771.999 2348.77 771.999C2396.12 771.999 2434.5 810.37 2434.5 857.702L2434.5 861.01 2414.6 850.509C2381.97 837.087 2346.09 829.665 2308.43 829.665 2214.27 829.665 2131.26 876.053 2082.24 946.607L2058.44 989.232 1527.23 989.232C1479.88 989.232 1441.5 950.862 1441.5 903.53L1441.5 857.702C1441.5 810.37 1479.88 771.999 1527.23 771.999ZM1527.23 520.5 2348.77 520.5C2396.12 520.5 2434.5 558.87 2434.5 606.203L2434.5 652.03C2434.5 699.363 2396.12 737.733 2348.77 737.733L1527.23 737.733C1479.88 737.733 1441.5 699.363 1441.5 652.03L1441.5 606.203C1441.5 558.87 1479.88 520.5 1527.23 520.5Z" stroke="#FFFFFF" stroke-width="20.625" stroke-miterlimit="8" fill="none" fill-rule="evenodd"/><path d="M2125 1096.5C2125 996.26 2206.26 915 2306.5 915 2406.74 915 2488 996.26 2488 1096.5 2488 1196.74 2406.74 1278 2306.5 1278 2206.26 1278 2125 1196.74 2125 1096.5Z" stroke="#FFFFFF" stroke-width="27.5" stroke-miterlimit="8" fill="none" fill-rule="evenodd"/><path d="M2438.34 1226.53C2440.88 1223.99 2444.99 1223.99 2447.53 1226.53L2689.95 1468.95C2692.49 1471.49 2692.49 1475.6 2689.95 1478.14L2689.95 1478.14C2687.42 1480.68 2683.3 1480.68 2680.77 1478.14L2438.34 1235.72C2435.81 1233.18 2435.81 1229.07 2438.34 1226.53Z" stroke="#FFFFFF" stroke-width="13.75" stroke-miterlimit="8" fill="none" fill-rule="evenodd"/></g></svg>