<svg width="492" height="559" xmlns="http://www.w3.org/2000/svg" xmlns:xlink="http://www.w3.org/1999/xlink" xml:space="preserve" overflow="hidden"><g transform="translate(-1161 -591)"><path d="M1326.14 958.777C1322.24 904.925 1362.74 858.108 1416.59 854.209 1470.44 850.309 1517.26 890.803 1521.16 944.655 1525.06 998.507 1484.56 1045.32 1430.71 1049.22 1376.86 1053.12 1330.04 1012.63 1326.14 958.777Z" stroke="#FFFFFF" stroke-width="27.5" stroke-miterlimit="8" fill="none" fill-rule="evenodd"/><path d="M1499.45 1016.44C1500.72 1014.98 1502.93 1014.82 1504.39 1016.08L1644.02 1136.85C1645.48 1138.12 1645.64 1140.33 1644.37 1141.79L1644.37 1141.79C1643.11 1143.25 1640.9 1143.41 1639.44 1142.15L1499.81 1021.37C1498.35 1020.11 1498.19 1017.9 1499.45 1016.44Z" stroke="#FFFFFF" stroke-width="13.75" stroke-miterlimit="8" fill="none" fill-rule="evenodd"/><path d="M1235.17 622 1395.83 622C1418.02 622 1436 639.959 1436 662.114L1436 806.652 1427.81 805.828C1345.32 805.828 1278.44 872.615 1278.44 955L1235.17 955C1212.98 955 1195 937.04 1195 914.886L1195 662.114C1195 639.959 1212.98 622 1235.17 622Z" stroke="#F6C6AD" stroke-width="13.75" stroke-miterlimit="8" fill="none" fill-rule="evenodd"/><path d="M1226 659C1226 654.582 1229.58 651 1234 651L1395 651C1399.42 651 1403 654.582 1403 659L1403 659C1403 663.418 1399.42 667 1395 667L1234 667C1229.58 667 1226 663.418 1226 659Z" fill="#FFFFFF" fill-rule="evenodd"/><path d="M1325 695C1325 690.582 1328.58 687 1333 687L1395 687C1399.42 687 1403 690.582 1403 695L1403 695C1403 699.418 1399.42 703 1395 703L1333 703C1328.58 703 1325 699.418 1325 695Z" fill="#FFFFFF" fill-rule="evenodd"/><path d="M1208.21 598 1369.05 598C1385.71 598 1400 608.102 1406.1 622.498L1407 626.939 1397.2 624.966 1236.36 624.966C1214.16 624.966 1196.15 642.924 1196.15 665.077L1196.15 917.828 1198.41 929 1192.56 927.821C1178.13 921.732 1168 907.477 1168 890.862L1168 638.111C1168 615.958 1186 598 1208.21 598Z" stroke="#F6C6AD" stroke-width="13.75" stroke-miterlimit="8" fill="none" fill-rule="evenodd"/></g></svg>